<svg width="86" height="86" viewBox="0 0 86 86" fill="none" xmlns="http://www.w3.org/2000/svg">
<path d="M39.2486 3.13802C40.5372 -0.344457 45.4628 -0.344452 46.7514 3.13802L55.8662 27.7705C56.2714 28.8654 57.1346 29.7286 58.2295 30.1338L82.862 39.2486C86.3445 40.5372 86.3445 45.4628 82.862 46.7514L58.2295 55.8662C57.1346 56.2714 56.2714 57.1346 55.8662 58.2295L46.7514 82.862C45.4628 86.3445 40.5372 86.3445 39.2486 82.862L30.1338 58.2295C29.7286 57.1346 28.8654 56.2714 27.7705 55.8662L3.13802 46.7514C-0.344457 45.4628 -0.344452 40.5372 3.13802 39.2486L27.7705 30.1338C28.8654 29.7286 29.7286 28.8654 30.1338 27.7705L39.2486 3.13802Z" fill="white"/>
</svg>
